# xmcd
#
# Track frame offsets:
#	150
#	23085
#	44340
#	70222
#	87705
#	108800
#	134150
#	159270
#	176695
#	203582
#
# Disc length: 3091 seconds
#
# Revision: 116
# Processed by: cddbd v1.5.2PL0 Copyright (c) Steve Scherf et al.
# Submitted via: EZCDAudioConverter 8.0.2.1
#
DISCID=850c110a
DTITLE=Thanh Tuyền, Nhật Quang, Giao Linh, Nhật Linh - Tuyệt Phẩm Rumba. Ngày 
DTITLE=Xưa Anh Nói
DYEAR=1995
DGENRE=Contemporary Pop
TTITLE0=ThanhTuyền - Hoa tím ngày xưa
TTITLE1=Nhật Quang - Ai cho tôi tình yêu
TTITLE2=Giao Linh - Ngày Xưa Anh Nói
TTITLE3=Nhật Linh - Kẻ ở miền xa
TTITLE4=Giao Linh - Chuyện hẹn hò
TTITLE5=Nhật Quang - Đôi mắt người xưa
TTITLE6=ThanhTuyền - Ai khổ vì ai
TTITLE7=Nhật Linh - Bông cỏ may
TTITLE8=Giao Linh - Hồi tưởng
TTITLE9=Nhật Quang - Đưa em vào hạ
EXTD=
EXTT0=
EXTT1=
EXTT2=
EXTT3=
EXTT4=
EXTT5=
EXTT6=
EXTT7=
EXTT8=
EXTT9=
PLAYORDER=
